<svg width="32" height="32" viewBox="0 0 32 32" fill="none" xmlns="http://www.w3.org/2000/svg">
<path fill-rule="evenodd" clip-rule="evenodd" d="M4.95318 31.2709H0.000976562C0.000976562 31.2709 6.37407 11.6546 8.48038 5.17412C9.46582 2.14205 12.2909 0.08918 15.4785 0.08918H24.3319C27.0017 0.08918 29.2299 1.21692 30.6154 3.1226C31.9998 5.02839 32.3925 7.4669 31.5852 9.95457C30.7769 12.4422 30.0133 14.7905 29.3143 16.9422C28.3705 19.8474 25.7559 21.8492 22.7329 22.012C22.7329 22.012 22.7173 22.0069 26.9528 8.97027C27.3268 7.81982 27.1903 6.69375 26.6028 5.88612C26.0163 5.07859 25.0267 4.60066 23.7173 4.60066H16.1202C14.6285 4.60066 13.3066 5.56132 12.8451 6.98021L4.95318 31.2709Z" fill="#F0145A"/>
<path fill-rule="evenodd" clip-rule="evenodd" d="M22.7326 22.012H12.751L17.1491 8.63587L22.1248 8.66528L19.2356 17.4866L24.1965 17.4896L22.7326 22.012Z" fill="url(#paint0_linear_90_7705)"/>
<defs>
<linearGradient id="paint0_linear_90_7705" x1="12.7503" y1="19.45" x2="23.8538" y2="25.2534" gradientUnits="userSpaceOnUse">
<stop stop-color="#F0145A"/>
<stop offset="1" stop-color="#693264"/>
</linearGradient>
</defs>
</svg>
